<?xml version="1.0" standalone="no"?>
<!DOCTYPE svg PUBLIC "-//W3C//DTD SVG 20010904//EN"
 "http://www.w3.org/TR/2001/REC-SVG-20010904/DTD/svg10.dtd">
<svg version="1.0" xmlns="http://www.w3.org/2000/svg"
 width="32.000000pt" height="32.000000pt" viewBox="0 0 32.000000 32.000000"
 preserveAspectRatio="xMidYMid meet">

<g transform="translate(0.000000,32.000000) scale(0.100000,-0.100000)"
fill="#000000" stroke="none">
<path d="M175 281 c-3 -6 -4 -14 -2 -18 3 -5 -1 -13 -8 -20 -8 -7 -15 -8 -17
-3 -2 5 -14 11 -28 12 -22 3 -25 0 -22 -26 2 -16 0 -31 -5 -35 -4 -3 -13 -20
-19 -38 -9 -25 -9 -30 1 -27 7 3 15 -3 18 -13 2 -10 8 -25 11 -34 4 -10 0 -23
-9 -33 -15 -15 -13 -16 29 -18 25 0 52 -1 59 -2 7 -1 11 9 9 23 -1 13 5 32 15
43 21 23 22 128 1 128 -5 0 -7 14 -6 31 3 32 -14 50 -27 30z m-18 -133 c-3 -8
-6 -5 -6 6 -1 11 2 17 5 13 3 -3 4 -12 1 -19z m5 -63 c3 -49 -5 -56 -33 -24
-14 17 -16 25 -7 45 18 38 36 29 40 -21z m25 23 c-3 -8 -6 -5 -6 6 -1 11 2 17
5 13 3 -3 4 -12 1 -19z"/>
</g>
</svg>
